<svg width="30" height="29" viewBox="0 0 30 29" fill="none" xmlns="http://www.w3.org/2000/svg">
<g id="Search" clip-path="url(#clip0_139_1380)">
<path id="Vector" d="M19.375 16.9167H18.3875L18.0375 16.5904C19.2625 15.2129 20 13.4246 20 11.4792C20 7.14125 16.3625 3.625 11.875 3.625C7.3875 3.625 3.75 7.14125 3.75 11.4792C3.75 15.8171 7.3875 19.3333 11.875 19.3333C13.8875 19.3333 15.7375 18.6204 17.1625 17.4363L17.5 17.7746V18.7292L23.75 24.7588L25.6125 22.9583L19.375 16.9167ZM11.875 16.9167C8.7625 16.9167 6.25 14.4879 6.25 11.4792C6.25 8.47042 8.7625 6.04167 11.875 6.04167C14.9875 6.04167 17.5 8.47042 17.5 11.4792C17.5 14.4879 14.9875 16.9167 11.875 16.9167Z" fill="black"/>
</g>
<defs>
<clipPath id="clip0_139_1380">
<rect width="30" height="29" fill="white"/>
</clipPath>
</defs>
</svg>
